<?xml version="1.0" encoding="UTF-8" standalone="no"?>
<svg
   id="_图层_1"
   data-name="图层 1"
   viewBox="0 0 380.92498 144.798"
   version="1.1"
   sodipodi:docname="hvisor-logo.svg"
   width="380.92499"
   height="144.798"
   inkscape:version="1.3.2 (091e20e, 2023-11-25)"
   xmlns:inkscape="http://www.inkscape.org/namespaces/inkscape"
   xmlns:sodipodi="http://sodipodi.sourceforge.net/DTD/sodipodi-0.dtd"
   xmlns="http://www.w3.org/2000/svg"
   xmlns:svg="http://www.w3.org/2000/svg">
  <sodipodi:namedview
     id="namedview10"
     pagecolor="#ffffff"
     bordercolor="#666666"
     borderopacity="1.0"
     inkscape:showpageshadow="2"
     inkscape:pageopacity="0.0"
     inkscape:pagecheckerboard="0"
     inkscape:deskcolor="#d1d1d1"
     inkscape:zoom="0.79423837"
     inkscape:cx="175.63997"
     inkscape:cy="52.88085"
     inkscape:window-width="1152"
     inkscape:window-height="687"
     inkscape:window-x="0"
     inkscape:window-y="25"
     inkscape:window-maximized="0"
     inkscape:current-layer="_图层_1" />
  <defs
     id="defs1">
    <style
       id="style1">
      .cls-1 {
        fill: #1b2b80;
      }

      .cls-2 {
        fill: none;
      }
    </style>
  </defs>
  <path
     class="cls-2"
     d="m 30.264481,104.78345 h -2.42 c -3.68,0 -6.62,3.2 -6.17,6.97 0.37,3.17 3.24,5.46 6.43,5.46 h 11.85 c -2.17,-3 -4.53,-6.56 -6.53,-10.5 -0.6,-1.19 -1.83,-1.93 -3.16,-1.93 z"
     id="path1" />
  <path
     class="cls-1"
     d="m 73.024481,43.603451 c -0.42,-1.89 -1.94,-3.41 -3.83,-3.83 -3.75,-0.83 -7.02,2.44 -6.19,6.19 0.42,1.89 1.94,3.42 3.83,3.83 3.75,0.83 7.02,-2.44 6.19,-6.19 z"
     id="path2" />
  <g
     id="g10"
     transform="translate(-30.595519,-76.046549)">
    <path
       class="cls-1"
       d="m 112.93,136.37 c 12.47,-10.67 13.03,-16.33 9.57,-22 l -0.39,-0.6 c -5.16,-6.77 -16.43,-12.79 -32.28,-9.84 -2.11,-5.07 -7.45,-8.48 -13.45,-7.6 -5.31,0.77 -9.62,4.99 -10.49,10.29 -0.95,5.76 2.06,10.93 6.72,13.3 -2.62,6.17 -6.23,14.04 -9.48,22.52 -1,2.73 -1.93,5.55 -2.66,8.49 -0.46,1.83 -0.85,3.71 -1.13,5.64 -0.73,5.08 -0.54,9.83 0.4,14.32 0.16,0.76 0.34,1.5 0.53,2.24 0,0.02 0,0.04 -0.03,0.04 h -1.49 c -7.16,0 -13.44,5.24 -14.22,12.35 -0.91,8.38 5.63,15.47 13.83,15.47 H 95.5 l 5.19,-0.02 c 0.51,0 1.02,-0.09 1.5,-0.29 3.39,-1.41 7.67,-3.79 11.94,-7.53 0,0 0,0 0,0 16.42,-16.79 9.73,-37.71 -1.38,-55.58 -0.24,-0.38 -0.15,-0.88 0.19,-1.17 z m -60.65,51.44 c -0.45,-3.77 2.49,-6.97 6.17,-6.97 h 2.42 c 1.33,0 2.56,0.74 3.16,1.93 1.78,3.51 3.85,6.69 5.81,9.48 0,0 0,0.01 0,0.02 0.41,0.57 0.26,0.98 -0.27,1.01 H 58.71 c -3.19,0 -6.06,-2.29 -6.43,-5.46 z m 47.83,4.96 c -0.5,0.33 -1.09,0.5 -1.69,0.5 h -1.44 c -0.77,0 -1.4,-0.63 -1.4,-1.4 v -1.63 c 0,-2.17 -1.46,-4.17 -3.59,-4.6 -2.91,-0.58 -5.46,1.63 -5.46,4.43 v 1.8 c 0,0.77 -0.63,1.4 -1.4,1.4 h -1.46 c -0.94,0 -1.84,-0.43 -2.42,-1.17 -2.56,-3.29 -5.33,-7.12 -7.59,-11.38 -1.42,-2.66 -2.64,-5.49 -3.55,-8.47 -1.12,-3.64 -1.74,-7.5 -1.78,-11.62 l 13.33,10.48 c 7.11,5.59 18.26,2.55 20.8,-7.61 1.16,-4.65 -0.71,-9.54 -4.48,-12.51 l -4.39,-3.45 c -1.37,-1.08 -3.07,-1.67 -4.81,-1.67 h -6.04 c -0.94,0 -1.35,1.18 -0.61,1.76 l 11.39,8.96 c 1.47,1.16 2.24,3.02 1.92,4.87 -0.85,4.99 -6.11,6.57 -9.41,3.97 L 69.07,152.09 c 0.28,-1.69 0.62,-3.36 1.02,-4.99 2.58,-9.89 6.21,-19.08 8.66,-25.97 v 0 c 0.74,-2.09 1.49,-3.82 2.06,-5.51 0.04,-0.1 0.32,-0.95 0.46,-1.42 0,0 0,-0.02 0,-0.03 0,-0.03 0,-0.05 0,-0.08 -0.02,-0.07 -0.07,-0.13 -0.14,-0.14 -0.03,0 -0.06,0 -0.09,0 0,0 0,0 -0.01,0 -0.83,0.21 -1.64,0.33 -2.53,0.36 -0.16,0.01 -0.33,0.02 -0.49,0.02 -0.97,0 -1.88,-0.25 -2.68,-0.68 -1.67,-1 -2.8,-2.83 -2.8,-4.92 0,-3.17 2.58,-5.74 5.74,-5.74 0.05,0 0.11,0 0.17,0 v 0 c 0,0 0.05,0 0.07,0 3.46,0 6.26,2.8 6.26,6.26 0,0.88 -0.19,1.71 -0.52,2.47 v 0 c 0,0 -0.02,0.07 -0.01,0.11 0.02,0.07 0.07,0.13 0.14,0.14 0.02,0 0.05,0 0.07,0 v 0 c 0,0 0,0 0,0 0.02,0 0.03,0 0.05,-0.01 1.8,-0.52 4.34,-0.9 5.86,-1.22 16.98,-3.52 24.96,5.38 26.26,7.01 l 0.09,0.16 c 0.84,1.37 1.18,1.94 0.43,3.63 -0.96,2.17 -3.92,6.12 -12.75,13.02 0,0 0,0 -0.01,0 0,0 -0.02,0.01 -0.03,0.02 0,0 0,0 0,0 -0.4,0.3 -0.67,0.77 -0.67,1.32 0,0.34 0.1,0.65 0.27,0.91 0,0 0,0 0,0 11.66,18.59 17.72,41.65 -3.84,55.95 z"
       id="path3" />
    <g
       id="g9">
      <path
         class="cls-1"
         d="m 333.96,200.94 c -16.81,0 -24.82,-8.58 -25.36,-24.15 0.53,-17.17 8.88,-26.97 25.36,-26.97 16.48,0 24.55,8.99 25.36,24.55 -0.8,17.18 -9.25,26.57 -25.36,26.57 z m 0.4,-46.69 c -6.98,0.27 -10.46,7.65 -10.46,22.14 0,13.69 3.35,20.53 10.06,20.53 6.17,-0.26 9.52,-8.31 10.06,-24.15 -0.27,-12.08 -3.49,-18.24 -9.66,-18.51 z"
         id="path4" />
      <path
         class="cls-1"
         d="m 185.34,155.41 c -2.96,-3.22 -7.29,-4.83 -12.39,-4.83 -5.37,0.27 -10.46,2.96 -15.29,8.05 v -34.74 h -14.09 v 77.01 h 14.09 v -23.35 c 0,-12.27 2.28,-18.52 9.26,-18.52 5.71,0 8.72,5.37 8.45,16.91 v 24.96 h 14.09 v -32.6 c 0,-5.9 -1.17,-10.19 -4.12,-12.88 z"
         id="path5" />
      <path
         class="cls-1"
         d="m 247.67,150.64 v 50.3 h 14.09 v -50.3 z"
         id="path6" />
      <circle
         class="cls-1"
         cx="254.72"
         cy="135.14"
         r="8.21"
         id="circle6" />
      <path
         class="cls-1"
         d="m 289.43,168.74 c -5.91,-2.14 -8.86,-4.69 -8.86,-7.65 0,-3.75 2.41,-6.04 7.25,-6.04 5.26,0 8.27,3.16 9.92,8 0.09,0.27 0.34,0.45 0.62,0.45 h 1.86 c 0.29,0 0.55,-0.18 0.63,-0.46 0.76,-2.56 1.52,-5.36 2.28,-8.39 -4.3,-2.95 -9.25,-4.83 -14.89,-4.83 -12.44,0 -17.18,6.31 -17.71,16.5 0,6.98 4.83,12.35 14.49,16.1 6.17,2.42 9.26,4.97 9.26,7.65 -0.54,3.76 -3.02,6.44 -8.05,6.44 -5.03,0 -9.08,-2.82 -11.51,-8.46 -0.1,-0.24 -0.33,-0.39 -0.59,-0.39 h -1.38 c -0.32,0 -0.59,0.23 -0.64,0.54 l -1.53,9.15 c 3.75,2.13 8.42,3.59 14.04,3.59 12.64,0 19.32,-5.77 20.12,-15.7 0,-7.25 -5.1,-12.74 -15.29,-16.5 z"
         id="path7" />
      <path
         class="cls-1"
         d="m 232.83,150.64 c -3.69,12.02 -8.32,25.37 -12.76,36.62 l -11.3,-36.62 h -16.04 c 3.88,10.13 9.27,25.61 15.57,43.27 l 2.63,7.03 h 9.61 l 19.84,-50.3 z"
         id="path8" />
      <path
         class="cls-1"
         d="m 395.37,150.63 c -8.59,0 -14.23,4.57 -16.91,13.69 v -13.69 h -14.09 v 50.31 h 14.09 v -18.11 c 0,-5.81 0,-9.66 0.8,-12.08 1.07,-4.29 5.19,-6.84 9.04,-6.84 1.59,0 3.9,0.52 5.77,1.57 h 0.01 c 0,0 0.03,0.02 0.05,0.02 0.02,0 0.04,-0.01 0.06,-0.03 h 0.02 c 0,0 0,-0.01 0,-0.01 0,0 0,0 0,0 l 0.66,-0.66 c 0,0 0.07,-0.11 0.07,-0.18 -0.26,-4.26 -0.13,-8.92 0.41,-13.98 z"
         id="path9" />
    </g>
  </g>
</svg>
