<svg width="816" height="360" xmlns="http://www.w3.org/2000/svg" xmlns:xlink="http://www.w3.org/1999/xlink" xml:space="preserve" overflow="hidden"><g transform="translate(-232 -180)"><g><path d="M263.363 470.442C263.363 463.404 269.068 457.699 276.106 457.699L885.664 457.699C892.704 457.699 898.407 463.404 898.407 470.442L898.407 521.416C898.407 528.454 892.704 534.159 885.664 534.159L276.106 534.159C269.068 534.159 263.363 528.454 263.363 521.416Z" stroke="#0018DD" stroke-width="1.06195" stroke-linecap="butt" stroke-linejoin="miter" stroke-miterlimit="8" stroke-opacity="1" fill="#FFFFFF" fill-rule="evenodd" fill-opacity="1" transform="matrix(1.00313 0 0 1 145.713 4.77876)"/><path d="M276.637 440.31C276.637 434.078 281.689 429.027 287.921 429.027L487.3 429.027C493.532 429.027 498.584 434.078 498.584 440.31L498.584 511.725C498.584 517.957 493.532 523.009 487.3 523.009L287.921 523.009C281.689 523.009 276.637 517.957 276.637 511.725Z" fill="#BFBFBF" fill-rule="evenodd" fill-opacity="1" transform="matrix(1.00313 0 0 1 145.713 4.77876)"/><text fill="#FFFFFF" fill-opacity="1" font-family="Microsoft YaHei,Microsoft YaHei_MSFontService,sans-serif" font-style="normal" font-variant="normal" font-weight="700" font-stretch="normal" font-size="36" text-anchor="start" direction="ltr" writing-mode="lr-tb" unicode-bidi="normal" text-decoration="none" transform="matrix(0.532637 0 0 0.530973 505.739 459)">zone0</text><path d="M671.681 438.979C671.681 433.189 676.375 428.496 682.163 428.496L869.873 428.496C875.66 428.496 880.354 433.189 880.354 438.979L880.354 512.525C880.354 518.315 875.66 523.009 869.873 523.009L682.163 523.009C676.375 523.009 671.681 518.315 671.681 512.525Z" fill="#BFBFBF" fill-rule="evenodd" fill-opacity="1" transform="matrix(1.00313 0 0 1 145.713 4.77876)"/><text fill="#FFFFFF" fill-opacity="1" font-family="Microsoft YaHei,Microsoft YaHei_MSFontService,sans-serif" font-style="normal" font-variant="normal" font-weight="700" font-stretch="normal" font-size="36" text-anchor="start" direction="ltr" writing-mode="lr-tb" unicode-bidi="normal" text-decoration="none" transform="matrix(0.532637 0 0 0.530973 895.154 458)">zone1</text><path d="M301.593 478.938C301.593 475.419 304.446 472.566 307.965 472.566L371.681 472.566C375.2 472.566 378.053 475.419 378.053 478.938L378.053 504.425C378.053 507.944 375.2 510.796 371.681 510.796L307.965 510.796C304.446 510.796 301.593 507.944 301.593 504.425Z" fill="#7030A0" fill-rule="evenodd" fill-opacity="1" transform="matrix(1.00313 0 0 1 145.713 4.77876)"/><text fill="#FFFFFF" fill-opacity="1" font-family="Arial,Arial_MSFontService,sans-serif" font-style="normal" font-variant="normal" font-weight="700" font-stretch="normal" font-size="36" text-anchor="start" direction="ltr" writing-mode="lr-tb" unicode-bidi="normal" text-decoration="none" transform="matrix(0.532637 0 0 0.530973 461.034 504)">core0</text><path d="M393.982 478.938C393.982 475.419 396.835 472.566 400.354 472.566L464.071 472.566C467.59 472.566 470.442 475.419 470.442 478.938L470.442 504.425C470.442 507.944 467.59 510.796 464.071 510.796L400.354 510.796C396.835 510.796 393.982 507.944 393.982 504.425Z" fill="#7030A0" fill-rule="evenodd" fill-opacity="1" transform="matrix(1.00313 0 0 1 145.713 4.77876)"/><text fill="#FFFFFF" fill-opacity="1" font-family="Arial,Arial_MSFontService,sans-serif" font-style="normal" font-variant="normal" font-weight="700" font-stretch="normal" font-size="36" text-anchor="start" direction="ltr" writing-mode="lr-tb" unicode-bidi="normal" text-decoration="none" transform="matrix(0.532637 0 0 0.530973 553.86 504)">core1</text><path d="M695.044 478.938C695.044 475.419 697.896 472.566 701.416 472.566L765.133 472.566C768.653 472.566 771.504 475.419 771.504 478.938L771.504 504.425C771.504 507.944 768.653 510.796 765.133 510.796L701.416 510.796C697.896 510.796 695.044 507.944 695.044 504.425Z" fill="#7030A0" fill-rule="evenodd" fill-opacity="1" transform="matrix(1.00313 0 0 1 145.713 4.77876)"/><text fill="#FFFFFF" fill-opacity="1" font-family="Arial,Arial_MSFontService,sans-serif" font-style="normal" font-variant="normal" font-weight="700" font-stretch="normal" font-size="36" text-anchor="start" direction="ltr" writing-mode="lr-tb" unicode-bidi="normal" text-decoration="none" transform="matrix(0.532637 0 0 0.530973 855.942 504)">core2</text><path d="M781.062 478.938C781.062 475.419 783.913 472.566 787.434 472.566L851.15 472.566C854.671 472.566 857.522 475.419 857.522 478.938L857.522 504.425C857.522 507.944 854.671 510.796 851.15 510.796L787.434 510.796C783.913 510.796 781.062 507.944 781.062 504.425Z" fill="#7030A0" fill-rule="evenodd" fill-opacity="1" transform="matrix(1.00313 0 0 1 145.713 4.77876)"/><text fill="#FFFFFF" fill-opacity="1" font-family="Arial,Arial_MSFontService,sans-serif" font-style="normal" font-variant="normal" font-weight="700" font-stretch="normal" font-size="36" text-anchor="start" direction="ltr" writing-mode="lr-tb" unicode-bidi="normal" text-decoration="none" transform="matrix(0.532637 0 0 0.530973 941.952 504)">core3</text><path d="M292.035 289.558C292.035 285.061 295.681 281.416 300.177 281.416L492.566 281.416C497.063 281.416 500.708 285.061 500.708 289.558L500.708 322.124C500.708 326.62 497.063 330.265 492.566 330.265L300.177 330.265C295.681 330.265 292.035 326.62 292.035 322.124Z" fill="#4C8AFE" fill-rule="evenodd" fill-opacity="1" transform="matrix(1.00313 0 0 1 145.713 4.77876)"/><text fill="#FFFFFF" fill-opacity="1" font-family="Arial,Arial_MSFontService,sans-serif" font-style="normal" font-variant="normal" font-weight="400" font-stretch="normal" font-size="48" text-anchor="start" direction="ltr" writing-mode="lr-tb" unicode-bidi="normal" text-decoration="none" transform="matrix(0.532637 0 0 0.530973 475.735 320)">BIG</text><text fill="#FFFFFF" fill-opacity="1" font-family="Arial,Arial_MSFontService,sans-serif" font-style="normal" font-variant="normal" font-weight="400" font-stretch="normal" font-size="48" text-anchor="start" direction="ltr" writing-mode="lr-tb" unicode-bidi="normal" text-decoration="none" transform="matrix(0.532637 0 0 0.530973 526.735 320)">kernel0</text><path d="M658.407 289.558C658.407 285.061 662.055 281.416 666.547 281.416L858.94 281.416C863.432 281.416 867.08 285.061 867.08 289.558L867.08 322.124C867.08 326.62 863.432 330.265 858.94 330.265L666.547 330.265C662.055 330.265 658.407 326.62 658.407 322.124Z" fill="#4C8AFE" fill-rule="evenodd" fill-opacity="1" transform="matrix(1.00313 0 0 1 145.713 4.77876)"/><text fill="#FFFFFF" fill-opacity="1" font-family="Arial,Arial_MSFontService,sans-serif" font-style="normal" font-variant="normal" font-weight="400" font-stretch="normal" font-size="48" text-anchor="start" direction="ltr" writing-mode="lr-tb" unicode-bidi="normal" text-decoration="none" transform="matrix(0.532637 0 0 0.530973 843.43 320)">BIG</text><text fill="#FFFFFF" fill-opacity="1" font-family="Arial,Arial_MSFontService,sans-serif" font-style="normal" font-variant="normal" font-weight="400" font-stretch="normal" font-size="48" text-anchor="start" direction="ltr" writing-mode="lr-tb" unicode-bidi="normal" text-decoration="none" transform="matrix(0.532637 0 0 0.530973 894.43 320)">kernel1</text><path d="M292.035 232.832C292.035 228.873 295.245 225.664 299.204 225.664L493.54 225.664C497.499 225.664 500.708 228.873 500.708 232.832L500.708 261.504C500.708 265.463 497.499 268.673 493.54 268.673L299.204 268.673C295.245 268.673 292.035 265.463 292.035 261.504Z" stroke="#000EA2" stroke-width="1.06195" stroke-linecap="butt" stroke-linejoin="miter" stroke-miterlimit="8" stroke-opacity="1" fill="none" fill-rule="evenodd" transform="matrix(1.00313 0 0 1 145.713 4.77876)"/><text fill="#000000" fill-opacity="1" font-family="Microsoft YaHei,Microsoft YaHei_MSFontService,sans-serif" font-style="normal" font-variant="normal" font-weight="400" font-stretch="normal" font-size="40" text-anchor="start" direction="ltr" writing-mode="lr-tb" unicode-bidi="normal" text-decoration="none" transform="matrix(0.532637 0 0 0.530973 521.941 260)">应用</text><path d="M92.3894 263.894 243.398 263.894" stroke="#0018DD" stroke-width="2.12389" stroke-linecap="butt" stroke-linejoin="miter" stroke-miterlimit="8" stroke-dasharray="16.9911 6.37168" stroke-opacity="1" fill="none" fill-rule="evenodd" transform="matrix(1.00313 0 0 1 145.713 4.77876)"/><text fill="#000000" fill-opacity="1" font-family="Arial,Arial_MSFontService,sans-serif" font-style="normal" font-variant="normal" font-weight="400" font-stretch="normal" font-size="36" text-anchor="start" direction="ltr" writing-mode="lr-tb" unicode-bidi="normal" text-decoration="none" transform="matrix(0.532637 0 0 0.530973 243.891 398)">EL2</text><text fill="#000000" fill-opacity="1" font-family="Arial,Arial_MSFontService,sans-serif" font-style="normal" font-variant="normal" font-weight="400" font-stretch="normal" font-size="36" text-anchor="start" direction="ltr" writing-mode="lr-tb" unicode-bidi="normal" text-decoration="none" transform="matrix(0.532637 0 0 0.530973 243.891 320)">EL1</text><text fill="#000000" fill-opacity="1" font-family="Arial,Arial_MSFontService,sans-serif" font-style="normal" font-variant="normal" font-weight="400" font-stretch="normal" font-size="36" text-anchor="start" direction="ltr" writing-mode="lr-tb" unicode-bidi="normal" text-decoration="none" transform="matrix(0.532637 0 0 0.530973 243.891 249)">EL0</text><path d="M278.761 195.752C278.761 185 287.478 176.283 298.23 176.283L494.514 176.283C505.266 176.283 513.982 185 513.982 195.752L513.982 327.788C513.982 338.54 505.266 347.257 494.514 347.257L298.23 347.257C287.478 347.257 278.761 338.54 278.761 327.788Z" stroke="#000EA2" stroke-width="1.06195" stroke-linecap="butt" stroke-linejoin="miter" stroke-miterlimit="8" stroke-dasharray="8.49557 3.18584" stroke-opacity="1" fill="none" fill-rule="evenodd" transform="matrix(1.00313 0 0 1 145.713 4.77876)"/><text fill="#000000" fill-opacity="1" font-family="Arial,Arial_MSFontService,sans-serif" font-style="normal" font-variant="normal" font-weight="400" font-stretch="normal" font-size="48" text-anchor="start" direction="ltr" writing-mode="lr-tb" unicode-bidi="normal" text-decoration="none" transform="matrix(0.532637 0 0 0.530973 516.948 215)">VM0</text><path d="M645.133 253.894C645.133 243.874 653.257 235.752 663.276 235.752L862.742 235.752C872.761 235.752 880.885 243.874 880.885 253.894L880.885 326.46C880.885 336.479 872.761 344.602 862.742 344.602L663.276 344.602C653.257 344.602 645.133 336.479 645.133 326.46Z" stroke="#000EA2" stroke-width="1.06195" stroke-linecap="butt" stroke-linejoin="miter" stroke-miterlimit="8" stroke-dasharray="8.49557 3.18584" stroke-opacity="1" fill="none" fill-rule="evenodd" transform="matrix(1.00313 0 0 1 145.713 4.77876)"/><text fill="#000000" fill-opacity="1" font-family="Arial,Arial_MSFontService,sans-serif" font-style="normal" font-variant="normal" font-weight="400" font-stretch="normal" font-size="48" text-anchor="start" direction="ltr" writing-mode="lr-tb" unicode-bidi="normal" text-decoration="none" transform="matrix(0.532637 0 0 0.530973 884.64 274)">VM1</text><path d="M92.3894 344.602 243.398 344.602" stroke="#0018DD" stroke-width="2.12389" stroke-linecap="butt" stroke-linejoin="miter" stroke-miterlimit="8" stroke-dasharray="16.9911 6.37168" stroke-opacity="1" fill="none" fill-rule="evenodd" transform="matrix(1.00313 0 0 1 145.713 4.77876)"/><path d="M92.3894 428.496 243.398 428.496" stroke="#0018DD" stroke-width="2.12389" stroke-linecap="butt" stroke-linejoin="miter" stroke-miterlimit="8" stroke-dasharray="16.9911 6.37168" stroke-opacity="1" fill="none" fill-rule="evenodd" transform="matrix(1.00313 0 0 1 145.713 4.77876)"/><path d="M277.699 369.734C277.699 365.238 281.344 361.593 285.841 361.593L872.745 361.593C877.242 361.593 880.885 365.238 880.885 369.734L880.885 402.301C880.885 406.797 877.242 410.442 872.745 410.442L285.841 410.442C281.344 410.442 277.699 406.797 277.699 402.301Z" fill="#0018DD" fill-rule="evenodd" fill-opacity="1" transform="matrix(1.00313 0 0 1 145.713 4.77876)"/><text fill="#FFFFFF" fill-opacity="1" font-family="Arial,Arial_MSFontService,sans-serif" font-style="normal" font-variant="normal" font-weight="400" font-stretch="normal" font-size="48" text-anchor="start" direction="ltr" writing-mode="lr-tb" unicode-bidi="normal" text-decoration="none" transform="matrix(0.532637 0 0 0.530973 529.757 400)">little</text><text fill="#FFFFFF" fill-opacity="1" font-family="Arial,Arial_MSFontService,sans-serif" font-style="normal" font-variant="normal" font-weight="400" font-stretch="normal" font-size="48" text-anchor="start" direction="ltr" writing-mode="lr-tb" unicode-bidi="normal" text-decoration="none" transform="matrix(0.532637 0 0 0.530973 582.355 400)">kernel</text><text fill="#FFFFFF" fill-opacity="1" font-family="Microsoft YaHei,Microsoft YaHei_MSFontService,sans-serif" font-style="normal" font-variant="normal" font-weight="400" font-stretch="normal" font-size="48" text-anchor="start" direction="ltr" writing-mode="lr-tb" unicode-bidi="normal" text-decoration="none" transform="matrix(0.532637 0 0 0.530973 659.188 400)">（</text><text fill="#FFFFFF" fill-opacity="1" font-family="Arial,Arial_MSFontService,sans-serif" font-style="normal" font-variant="normal" font-weight="400" font-stretch="normal" font-size="48" text-anchor="start" direction="ltr" writing-mode="lr-tb" unicode-bidi="normal" text-decoration="none" transform="matrix(0.532637 0 0 0.530973 684.752 400)">minimal hypervisor</text><text fill="#FFFFFF" fill-opacity="1" font-family="Microsoft YaHei,Microsoft YaHei_MSFontService,sans-serif" font-style="normal" font-variant="normal" font-weight="400" font-stretch="normal" font-size="48" text-anchor="start" direction="ltr" writing-mode="lr-tb" unicode-bidi="normal" text-decoration="none" transform="matrix(0.532637 0 0 0.530973 898.206 400)">）</text><path d="M344.602 350.442 364.779 330.265 384.956 350.442 374.867 350.442 374.867 405.664 384.956 405.664 364.779 425.841 344.602 405.664 354.69 405.664 354.69 350.442Z" fill="#BFBFBF" fill-rule="evenodd" fill-opacity="0.619608" transform="matrix(1.00313 0 0 1 145.713 4.77876)"/><path d="M755.575 352.832 776.018 332.389 796.46 352.832 786.239 352.832 786.239 408.053 796.46 408.053 776.018 428.496 755.575 408.053 765.796 408.053 765.796 352.832Z" fill="#BFBFBF" fill-rule="evenodd" fill-opacity="0.619608" transform="matrix(1.00313 0 0 1 145.713 4.77876)"/></g></g></svg>