<?xml version="1.0" encoding="UTF-8"?>
<svg id="_图层_1" data-name="图层 1" xmlns="http://www.w3.org/2000/svg" viewBox="0 0 548.57 150.53">
  <defs>
    <style>
      .cls-1 {
        fill: #283689;
      }
    </style>
  </defs>
  <path class="cls-1" d="M159.11,27.03c-2.31-1.41,.08,19.02-20.72,25.72,1.64-8.68-.75-15.71-2.06-16.83-1.34-1.15-1.47,7.18-12.11,8.85-1.1-1.92-2.7-3.94-4.62-5.96,.96-4.77-.35-8.65-1.06-9.27-.08-.07-1.87,2.21-5.01,3.64-.83-.68-1.66-1.36-2.52-2.01-2.34-1.81-4.69-3.25-6.94-4.41,.24-.54,1.68-4.26,.03-8.06-1.73-4-6.24-5.63-10.68-3.97-4.34,1.62-6.11,5.61-6.44,6.48-.02,.05-.04,.11-.06,.16-5.31-1-9.51-1-12.92-.51-1.83-3.12-5.28-5.44-8.82-5.45-2.91,0-6.22,1.33-8.02,4.01-3.01,4.48-1.49,11.63,3.44,14.31,.4,.22,.81,.39,1.23,.54-.43,.08-.9,.09-1.4,.02-3.31-.51-5.72-4.19-7.55-7.01-.02-.02-.05,.03-.08,.04-9.06,5.84-15.87,17.7-17.02,25.21-.93,.65-1.87,1.31-2.82,2-15.53,11.22-28.72,38.2-20.76,79.27,.17,1.19,1.02,2.53,2.35,2.53l14.45,.06c1.37,0,2.54-1,2.74-2.36l.82-5.6c.65-4.39,3.99-8.03,8.38-8.67,5.52-.8,10.47,3.02,11.26,8.35l.88,5.96c.2,1.34,1.35,2.33,2.7,2.33h14.79c1.35,0,2.5-.99,2.7-2.33l.79-5.3c.56-5.15,4.62-9.16,9.82-9.16s9.39,4.06,9.97,9.16l.82,5.62c.17,1.15,1.15,2,2.32,2h14.41c1.24,0,2.19-.73,2.65-2.05,2.76-8.08,2.26-14.58,1.88-17.92-.07-.6-.21-1.02-.3-1.43-13.95-.27-28.02-4.32-38.25-9.72,11.23,3.65,21.72,5.62,27.34,5.82,73.38,2.6,59.58-80.89,54.38-84.06ZM81.48,63.03c-1.47,3.41-5.43,4.99-8.84,3.52-3.41-1.47-4.99-5.43-3.52-8.84,1.47-3.41,5.43-4.99,8.84-3.52s4.99,5.43,3.52,8.84Z"/>
  <g>
    <path class="cls-1" d="M474.67,89.79h0c3.52,0,6.38,2.86,6.38,6.38v27.32c0,7.05-5.71,12.76-12.76,12.76h0v-40.08c0-3.52,2.86-6.38,6.38-6.38Z"/>
    <path class="cls-1" d="M325.39,83.71c-3.36,0-6.56,.65-9.51,1.8-1.38,.54-2.7,1.19-3.96,1.95-.01,0-.02,.01-.03,.02v-10.89c0-3.52-2.86-6.38-6.38-6.38s-6.38,2.86-6.38,6.38v34.05h.03c.35,14.2,11.95,25.61,26.24,25.61s26.27-11.76,26.27-26.27-11.76-26.27-26.27-26.27Zm9.56,36.08c-2.63,2.66-5.77,3.99-9.43,3.99s-6.97-1.36-9.63-4.07c-2.47-2.52-3.77-5.55-3.94-9.08h-.03v-.8c0-3.72,1.31-6.9,3.94-9.54,0,0,.01-.01,.02-.02,2.62-2.62,5.79-3.93,9.49-3.93s6.89,1.35,9.55,4.03c2.65,2.69,3.98,5.94,3.98,9.77s-1.32,6.99-3.94,9.65Z"/>
    <path class="cls-1" d="M456.61,90.75c-4.53-5.45-10.56-8.17-18.08-8.17-6.57,0-12.13,2.35-16.66,7.04-4.53,4.69-6.8,10.47-6.8,17.32v22.92c0,3.53,2.86,6.39,6.39,6.39h0c3.53,0,6.39-2.86,6.39-6.39v-22.76c0-5.67,4.28-10.63,9.94-10.99,6.2-.4,11.36,4.51,11.36,10.63v16.73c0,7.06,5.72,12.78,12.78,12.78h0v-27.73c0-7.59-1.77-13.51-5.32-17.77Z"/>
    <path class="cls-1" d="M474.65,70.33c1.84,0,3.42,.67,4.73,2,1.32,1.33,1.97,2.95,1.97,4.84s-.65,3.47-1.96,4.79c-1.3,1.32-2.86,1.98-4.67,1.98s-3.46-.67-4.77-2.02c-1.32-1.35-1.97-2.98-1.97-4.9s.65-3.42,1.95-4.73c1.3-1.31,2.87-1.96,4.71-1.96Z"/>
    <g>
      <path class="cls-1" d="M509.1,95.37l-4.26-5.87c-1.88-2.59-4.88-4.12-8.08-4.12h-9.73l14.68,20.24,7.39-10.25Z"/>
      <path class="cls-1" d="M519.21,109.32l17.27-23.94h-9.47c-3.21,0-6.22,1.54-8.09,4.14l-7.02,9.72h0s-7.39,10.24-7.39,10.24h0s-4.6,6.38-4.6,6.38l-1.3,1.81h0s-13.4,18.57-13.4,18.57h9.47c3.21,0,6.22-1.54,8.09-4.14l9.05-12.54,9.11,12.56c1.88,2.59,4.88,4.12,8.08,4.12h9.73l-19.53-26.93Z"/>
    </g>
    <path class="cls-1" d="M226.57,111.82c3.18-1.82,5.67-4.42,7.47-7.8s2.7-7.17,2.7-11.35c0-7.43-2.24-13.16-6.71-17.17-3.98-3.52-9.17-5.28-15.57-5.28h-34.16v18.98h20.27c1.3-3.7,4.82-6.35,8.97-6.35,5.25,0,9.51,4.26,9.51,9.51s-4.26,9.51-9.51,9.51c-4.14,0-7.66-2.65-8.97-6.35h-20.27v40.73h12.73v-21.45h17.51l12.39,21.45h18.47l-14.84-24.43Z"/>
    <path class="cls-1" d="M383.34,82.8h0c-14.76,0-26.72,11.96-26.72,26.72h0c0,14.76,11.96,26.72,26.72,26.72h0c14.76,0,26.72-11.96,26.72-26.72h0c0-14.76-11.96-26.72-26.72-26.72Zm0,37.54c-6.11,0-11.06-4.95-11.06-11.06s4.95-11.06,11.06-11.06,11.06,4.95,11.06,11.06-4.95,11.06-11.06,11.06Z"/>
    <path class="cls-1" d="M267.29,82.8h0c-14.76,0-26.72,11.96-26.72,26.72h0c0,14.76,11.96,26.72,26.72,26.72h0c14.76,0,26.72-11.96,26.72-26.72h0c0-14.76-11.96-26.72-26.72-26.72Zm0,37.79c-6.11,0-11.06-4.95-11.06-11.06s4.95-11.06,11.06-11.06,11.06,4.95,11.06,11.06-4.95,11.06-11.06,11.06Z"/>
  </g>
</svg>