<?xml version="1.0" encoding="UTF-8" standalone="no"?>
<!-- Created with Inkscape (http://www.inkscape.org/) -->

<svg
   width="360"
   height="180"
   viewBox="0 0 95.250001 47.625"
   version="1.1"
   id="svg1"
   sodipodi:docname="path2.svg"
   inkscape:version="1.3.2 (091e20e, 2023-11-25)"
   inkscape:export-filename="path2.png"
   inkscape:export-xdpi="96"
   inkscape:export-ydpi="96"
   xmlns:inkscape="http://www.inkscape.org/namespaces/inkscape"
   xmlns:sodipodi="http://sodipodi.sourceforge.net/DTD/sodipodi-0.dtd"
   xmlns="http://www.w3.org/2000/svg"
   xmlns:svg="http://www.w3.org/2000/svg">
  <sodipodi:namedview
     id="namedview1"
     pagecolor="#ffffff"
     bordercolor="#666666"
     borderopacity="1.0"
     inkscape:showpageshadow="2"
     inkscape:pageopacity="0.0"
     inkscape:pagecheckerboard="0"
     inkscape:deskcolor="#d1d1d1"
     inkscape:document-units="mm"
     inkscape:zoom="1.6137859"
     inkscape:cx="171.95589"
     inkscape:cy="132.2976"
     inkscape:window-width="1152"
     inkscape:window-height="774"
     inkscape:window-x="0"
     inkscape:window-y="25"
     inkscape:window-maximized="0"
     inkscape:current-layer="svg1" />
  <defs
     id="defs1" />
  <g
     id="layer1"
     transform="translate(-57.258525,-124.48874)">
    <path
       class="cls-1"
       d="m 104.11666,128.59279 c 1.1377,6.05102 -2.7649,11.93271 -8.821213,13.208 -1.881187,0.39687 -3.751791,0.29898 -5.479521,-0.19844 -0.05292,-0.0106 -0.105833,-0.0238 -0.15875,-0.037 -0.679979,-0.70908 -1.431395,-1.3679 -2.262187,-1.95792 -7.186083,-5.1091 -17.152937,-3.429 -22.262041,3.75709 -5.109105,7.18608 -3.429,17.15293 3.757083,22.26204 0.936625,0.6641 1.918229,1.21444 2.931583,1.65364 -4.98475,-5.43189 -5.677958,-13.78743 -1.232958,-20.03689 4.400021,-6.18861 12.403666,-8.2894 19.129375,-5.49275 0.632354,0.88106 1.418166,1.67217 2.357437,2.32833 4.450292,3.10092 10.572752,2.00819 13.673662,-2.4421 2.90513,-4.16719 2.1299,-9.80281 -1.63512,-13.04925 z"
       id="path1"
       style="fill:#23165c;stroke-width:0.264583" />
    <path
       class="cls-1"
       d="m 80.407343,153.06146 c -0.576791,0 -1.137708,0.11377 -1.669521,0.33602 -0.534458,0.22489 -1.026583,0.52652 -1.465791,0.89958 -0.439209,0.37306 -0.812271,0.81227 -1.113896,1.3044 -0.301625,0.49212 -0.505354,1.03452 -0.605896,1.61131 l -1.733021,9.83456 h 3.77825 l 1.8415,-10.4431 c 0.05292,-0.30692 0.206375,-0.57415 0.455084,-0.79375 0.248708,-0.22225 0.531812,-0.33338 0.841375,-0.33338 h 5.871104 l 0.425979,-2.41564 z"
       id="path2"
       style="fill:#23165c;stroke-width:0.264583" />
    <path
       class="cls-1"
       d="m 98.470447,153.06146 -1.852083,10.50131 c -0.05556,0.30692 -0.206375,0.5715 -0.455083,0.78052 -0.246063,0.20902 -0.529167,0.3175 -0.836084,0.3175 h -3.741208 c -0.309563,0 -0.552979,-0.10583 -0.724958,-0.3175 -0.17198,-0.20902 -0.232834,-0.47096 -0.179917,-0.78052 l 1.852083,-10.50131 h -3.77825 l -1.743604,9.89277 c -0.0979,0.55827 -0.08467,1.09008 0.04233,1.58221 0.127,0.49477 0.341313,0.93397 0.640292,1.30704 0.296333,0.37306 0.682625,0.66939 1.148292,0.88371 v 0 c 0.463021,0.21431 0.981604,0.32279 1.539875,0.32279 h 5.278437 c 0.576792,0 1.137709,-0.10848 1.669521,-0.32279 0.531813,-0.21432 1.023937,-0.51065 1.4605,-0.88371 0.439208,-0.37307 0.817562,-0.81227 1.129771,-1.30704 0.309569,-0.49213 0.515939,-1.02394 0.613839,-1.57957 l 1.7436,-9.89277 h -3.807356 z"
       id="path3"
       style="fill:#23165c;stroke-width:0.264583" />
    <path
       class="cls-1"
       d="m 131.21263,155.56177 c -0.13493,-0.50271 -0.35454,-0.94192 -0.65352,-1.30704 -0.29898,-0.36248 -0.67998,-0.65617 -1.1377,-0.87048 -0.45509,-0.21431 -0.97896,-0.32279 -1.55311,-0.32279 h -5.51127 c -0.55827,0 -1.1139,0.10848 -1.65629,0.32279 -0.53975,0.21431 -1.03188,0.508 -1.45786,0.86783 -0.42597,0.36248 -0.79639,0.80169 -1.09802,1.3044 -0.30162,0.50271 -0.50535,1.03981 -0.60325,1.59808 l -1.00806,5.71235 c -0.0979,0.55828 -0.0847,1.09009 0.0423,1.58221 0.127,0.49213 0.34132,0.92604 0.6403,1.29117 0.29898,0.36248 0.68527,0.66146 1.15093,0.88371 0.46302,0.22225 0.97896,0.33602 1.53723,0.33602 h 5.51127 c 0.5768,0 1.13771,-0.11377 1.66952,-0.33602 0.53446,-0.2249 1.0213,-0.52123 1.44728,-0.88371 0.42862,-0.36248 0.80168,-0.79904 1.11389,-1.29381 0.30956,-0.49213 0.51594,-1.02394 0.61383,-1.57957 l 1.00807,-5.71235 c 0.0979,-0.55827 0.0794,-1.09537 -0.0556,-1.59544 z m -3.62214,1.016 -1.21179,6.87387 c -0.0582,0.32809 -0.21167,0.60061 -0.46038,0.80963 -0.24871,0.20902 -0.53975,0.3175 -0.86519,0.3175 h -3.94493 c -0.30692,0 -0.55563,-0.10583 -0.73819,-0.31486 -0.18521,-0.20902 -0.24871,-0.48418 -0.1905,-0.81227 l 1.21179,-6.87387 c 0.0556,-0.30692 0.21167,-0.57679 0.47096,-0.7964 0.25929,-0.2196 0.54504,-0.33073 0.8546,-0.33073 h 3.94494 c 0.32808,0 0.58208,0.11113 0.75406,0.33338 0.16934,0.2196 0.22755,0.48683 0.17463,0.79375 z"
       id="path4"
       style="fill:#23165c;stroke-width:0.264583" />
    <path
       class="cls-1"
       d="m 136.83238,156.60423 c 0.0529,-0.30692 0.20638,-0.57415 0.45509,-0.79375 0.24871,-0.22225 0.53181,-0.33338 0.84137,-0.33338 h 9.31334 l 0.42068,-2.38654 h -10.1256 c -0.55827,0 -1.1086,0.10848 -1.64042,0.32279 -0.53181,0.21431 -1.01864,0.508 -1.44462,0.87048 -0.42598,0.36248 -0.7964,0.7964 -1.09538,1.29117 -0.30162,0.49212 -0.50271,1.02394 -0.6006,1.58221 -0.0953,0.53975 -0.0794,1.06098 0.0476,1.5531 0.127,0.49213 0.34132,0.92604 0.6403,1.29117 0.29897,0.36248 0.68262,0.65616 1.1377,0.86783 0.45509,0.21431 0.96838,0.32279 1.52665,0.32279 h 5.48217 c 0.30956,0 0.55297,0.11113 0.72495,0.33338 0.16934,0.2196 0.22755,0.48683 0.17463,0.79375 l -0.21961,1.24618 c -0.0556,0.30957 -0.20637,0.5715 -0.45508,0.78053 -0.24606,0.20902 -0.52917,0.3175 -0.83608,0.3175 h -9.68904 l -0.42069,2.38654 h 10.50131 c 0.55827,0 1.11125,-0.10319 1.63777,-0.30957 0.52917,-0.20372 1.01336,-0.49477 1.43934,-0.86783 0.42862,-0.37306 0.79904,-0.80698 1.09802,-1.29381 0.29898,-0.48419 0.50006,-1.01071 0.59795,-1.56633 l 0.0317,-0.17463 c 0.0979,-0.55562 0.0847,-1.09008 -0.0423,-1.58221 -0.127,-0.49477 -0.34396,-0.92869 -0.64029,-1.29116 -0.29898,-0.36248 -0.68263,-0.65353 -1.13771,-0.87048 -0.45508,-0.21432 -0.96837,-0.3228 -1.52664,-0.3228 h -5.48217 c -0.30956,0 -0.55298,-0.10583 -0.72496,-0.3175 -0.17198,-0.20902 -0.23283,-0.4736 -0.17992,-0.78052 l 0.1905,-1.0742 z"
       id="path5"
       style="fill:#23165c;stroke-width:0.264583" />
    <polygon
       class="cls-1"
       points="247.29,148.43 253.04,158.23 274.28,135.56 259.4,135.56 "
       id="polygon5"
       style="fill:#23165c"
       transform="matrix(0.26458333,0,0,0.26458333,45.270677,117.19454)" />
    <polygon
       class="cls-1"
       points="266.29,188.32 250.34,161.12 250.35,161.11 235.37,135.56 220.63,135.56 235.45,161.12 210.02,188.32 224.9,188.32 241.18,170.87 251.41,188.32 "
       id="polygon6"
       style="fill:#23165c"
       transform="matrix(0.26458333,0,0,0.26458333,45.270677,117.19454)" />
  </g>
</svg>
